<svg version="1.1" id="Layer_1" xmlns:x="ns_extend;" xmlns:i="ns_ai;" xmlns:graph="ns_graphs;" xmlns="http://www.w3.org/2000/svg" xmlns:xlink="http://www.w3.org/1999/xlink" x="0px" y="0px" viewBox="0 0 469.4 145" style="enable-background:new 0 0 469.4 145;" xml:space="preserve">
 <style type="text/css">
  .st0{fill:#FFFFFF;}
 </style>
 <metadata>
  <sfw xmlns="ns_sfw;">
   <slices>
   </slices>
   <sliceSourceBounds bottomLeftOrigin="true" height="145" width="469.4" x="-334.4" y="0">
   </sliceSourceBounds>
  </sfw>
 </metadata>
 <g>
  <polygon class="st0" points="82,93.9 82,14.8 61.2,14.8 61.2,44.3 20.8,44.3 20.8,14.8 0,14.8 0,93.9 20.8,93.9 20.8,59.7 
		61.2,59.7 61.2,93.9 	">
  </polygon>
  <path class="st0" d="M107.9,95.3c8.1,0,16.2-2.4,20.5-8.1h0.2V94h18.4V66.4c0-18.1-6.3-28-29.6-28C107.3,38,97.3,41.1,89,47
		l10.7,9.1c4.3-4.2,10.1-6.5,16.2-6.5c6.9,0,12.8,3.8,12.8,9.7c-16.6,0-43.8,0.3-43.8,19.1C84.8,89.5,95.9,95.3,107.9,95.3z
		 M123.7,70.1h4.9v3.8c0,6.7-7.3,10.1-15.2,10.1c-4.4,0-9.5-1.9-9.5-5.9C104,70.6,117.6,70.1,123.7,70.1z">
  </path>
  <path class="st0" d="M171.6,66.9c0-7.1,1.6-13.9,12-13.9C194,53,194,61.1,194,67.3V94h20V64c0-14.5-3.7-25.7-24-25.7
		c-7.4-0.5-14.5,2.8-18.9,8.7h-0.2v-7.4h-19.2V94h20L171.6,66.9L171.6,66.9z">
  </path>
  <path class="st0" d="M253.7,95.3c20,0,36-11.2,36-28.5s-16-28.5-36-28.5s-36,11.2-36,28.5S233.7,95.3,253.7,95.3z M253.7,53
		c10,0,16.2,5.6,16.2,13.8s-6,13.7-16.2,13.7c-10.2,0-16-5.6-16-13.7S243.8,53,253.7,53L253.7,53z">
  </path>
  <polygon class="st0" points="332,93.9 357.6,39.6 337.5,39.6 322.2,76.5 322,76.5 305.6,39.6 284,39.6 310.8,93.9 	">
  </polygon>
  <path class="st0" d="M388.3,95.3c10.2,0.2,20-3.7,27.3-10.7l-14-8.6c-3.5,4.2-8.8,6.6-14.2,6.5c-6.9,0.5-13.2-3.9-15.1-10.5h46.4
		v-5.2c0-17.3-11.7-28.5-30.4-28.5c-20,0-36,11.2-36,28.5S368.3,95.3,388.3,95.3z M386.4,50.3c7.2,0,12.4,4.7,12.3,10.3h-26.4
		C372.8,55.4,377.6,50.3,386.4,50.3z">
  </path>
  <path class="st0" d="M442.8,71.3c0-10.8,1.9-18.2,17.1-18.2c2.9,0,5.7,0.4,8.5,1.1V38.9c-2.2-0.5-4.4-0.6-6.7-0.6
		c-7.6-0.4-14.8,3.5-18.7,10h-0.2v-8.7h-20V94h20L442.8,71.3z">
  </path>
  <path class="st0" d="M78.7,100.7l1.8,0.2c2,0.2,2,0.5,2,6.7v18c0,6.3,0,6.5-2,6.7h-1.8v1.1h12.5v-1.1h-1.8c-2-0.2-2-0.5-2-6.7
		v-17.9c0-6.3,0-6.5,2-6.7l1.8-0.2v-1.1H78.7V100.7z">
  </path>
  <path class="st0" d="M119.3,128.5v-7.6c0-5.9,0-11.4-8-11.4c-2.9,0.1-5.7,1.2-7.9,3.2v-3.2c-2.7,0.3-5.4,0.9-8,1.8l0.2,1.2l1.1-0.3
		h0.7c1.5,0,1.5,1.4,1.5,6.5v10c0,3.2-0.5,3.5-2.3,3.8h-1.2v1.1h11.5v-1.1h-1.2c-1.9-0.2-2.3-0.5-2.3-3.8v-13.9
		c1.2-1.7,3.2-2.7,5.3-2.7c6.1,0,6.1,5,6.1,9.7v6.9c0,3.2-0.5,3.5-2.3,3.8h-1.2v1.1h11.4v-1.1h-1.1
		C119.7,132.1,119.3,131.8,119.3,128.5z">
  </path>
  <path class="st0" d="M130.9,114.7c-0.2-1.8,1-3.4,2.8-3.6c0.1,0,0.3,0,0.5,0c3.2,0,5,3.7,5,6h1.6c0.1-2.1-0.1-4.2-0.7-6.2
		c-1.6-1-3.4-1.5-5.3-1.4c-4.4,0-8.2,2.3-8.2,6.5c0,8.4,11.4,5.9,11.4,12.9c0.1,2.1-1.6,3.8-3.6,3.8l0,0c-4.1,0-5.9-3.2-6.9-6.7H126
		c0,2.3,0.3,4.7,1,6.9c2,1,4.2,1.5,6.5,1.5c4.9,0,8.9-2.3,8.9-7.2C142.3,118.9,130.9,120.6,130.9,114.7z">
  </path>
  <path class="st0" d="M171,131.5c-0.3,0-0.6,0-0.8,0c-1.4,0-1.4-2.1-1.4-6.5v-15.6c-2.7,0.3-5.4,1-8,1.8l0.2,1.2l1.1-0.3h0.7
		c1.4,0,1.4,1.5,1.4,6.5v11.7c-1.6,1.1-3.4,1.7-5.3,1.6c-5.1,0-6.2-3-6.2-7.1v-15.5c-2.7,0.4-5.4,1-8,1.8l0.2,1.2l1.1-0.3h0.7
		c1.5,0,1.5,1.5,1.5,6.5v6.5c0,5.6,0.7,9.2,8.3,9.2c2.8,0,5.6-0.9,7.9-2.5c0.2,0.9,0.6,1.8,1.1,2.5c2.3-0.4,4.7-1,6.9-1.7l-0.3-1.1
		L171,131.5z">
  </path>
  <path class="st0" d="M183,112.7c0-1.1-0.1-2.2-0.3-3.2c-2.5,0.3-5,1-7.4,1.9l0.4,1.2h0.5c0.4-0.1,0.8-0.2,1.2-0.3
		c1.4,0,1.4,1.1,1.4,6.5v10c0,3.5-0.5,3.5-2.2,3.8h-1.3v1.1h12.3v-1.1h-1.1c-2.7-0.2-3.2-0.2-3.2-3.8V115c0.1-1.2,1.3-2.1,2.5-2
		c1.4,0.2,2.8,0.6,4.2,1.1c1.1-0.8,2-1.8,2.6-2.9c-1.1-0.9-2.5-1.4-3.9-1.6C186.4,110,184.4,111,183,112.7z">
  </path>
  <path class="st0" d="M214.6,132.5c-2.8,0-2.8-3.9-2.8-7.4v-7.4c0-5.2-1.2-8.3-7.1-8.3c-4.1,0.1-7.9,2.1-10.3,5.5
		c0.3,0.8,0.8,1.5,1.4,2.1h0.3c1-1.9,2.3-5.1,6.5-5.1s4.8,2.9,4.8,6.5v1.2c-4.5,1.3-13.4,3.2-13.4,10c0,2.8,2.6,5,6.5,5
		c2.7,0.1,5.4-0.6,7.5-2.2c0.7,1.5,2.4,2.4,4.1,2.2c1.4,0,2.8-0.4,3.9-1.3l-0.2-0.7C215.3,132.6,214.9,132.6,214.6,132.5z
		 M207.3,130.4c-0.9,1.3-2.3,2.1-3.9,2.1c-2.4,0.2-4.6-1.5-4.8-3.9c0-0.2,0-0.5,0-0.7c0-4.9,5-6.1,8-6.1h0.7
		C207.3,121.7,207.3,130.4,207.3,130.4z">
  </path>
  <path class="st0" d="M242,128.5v-7.6c0-5.9,0-11.4-8-11.4c-2.9,0.1-5.7,1.2-7.9,3.2v-3.2c-2.7,0.3-5.4,0.9-8,1.8l0.2,1.2l1.1-0.3
		h0.7c1.5,0,1.5,1.4,1.5,6.5v10c0,3.2-0.5,3.5-2.3,3.8h-1.3v1.1h11.5v-1.1h-1.2c-1.9-0.2-2.3-0.5-2.3-3.8v-13.9
		c1.2-1.7,3.2-2.7,5.3-2.7c6.1,0,6.1,5,6.1,9.7v6.9c0,3.2-0.5,3.5-2.3,3.8h-1.2v1.1h11.4v-1.1h-1.1C242.5,132.1,242,131.8,242,128.5
		z">
  </path>
  <path class="st0" d="M263.5,132.5c-5.8,0-10-3.9-10-12c0-5.8,3.1-8.7,6.7-8.7c2.4-0.1,4.6,1,6,2.8h0.3c0.8-1.1,1.2-2.4,1.3-3.8
		c-1.8-1.1-3.9-1.6-5.9-1.5c-7.1-0.2-13.1,5.5-13.2,12.6c0,0.5,0,1,0,1.5c0,7.4,6.1,10.8,12,10.8c2.8,0.1,5.7-0.6,8.1-2.2l-0.4-1.2
		C267,131.8,265.3,132.4,263.5,132.5z">
  </path>
  <path class="st0" d="M282.6,109.5c-6.8,0.2-12.1,5.8-12,12.6c0,0.2,0,0.5,0,0.7c-0.2,6.2,4.5,11.4,10.7,11.6c0.3,0,0.7,0,1.1,0
		c3.2,0,6.4-1,9-2.9l-0.6-1.2c-1.8,1.1-3.8,1.6-5.8,1.6c-5.2,0-9.5-4.1-9.7-9.2c5.6-1.2,11-3.1,16.2-5.5
		C291,112.7,287.2,109.3,282.6,109.5z M275.4,120.4c0-3.8,1.3-9.2,5.7-9.2c4.4,0,5.2,3.2,5.9,6.3
		C283.2,118.7,279.3,119.6,275.4,120.4L275.4,120.4z">
  </path>
  <path class="st0" d="M329.4,123.1h1.8c3.6,0.2,3.6,0.5,3.6,6.7v2.2c-2,0.5-4,0.7-6,0.7c-10.1,0-14.6-8.1-14.6-16.9
		c0-9.7,5.3-15.1,13.7-15.1c4.9-0.6,9.4,3,9.9,7.9c0,0.1,0,0.3,0,0.4l1.4-0.3c0-2.6-0.3-5.1-0.8-7.6c-3.3-1.5-6.9-2.2-10.5-2.1
		c-8.1,0-19.2,4.1-19.2,17.9c0,12.9,9.2,17.6,19.6,17.6c4.4-0.1,8.8-1,12.9-2.5l-0.3-1.1h-0.5c-0.8,0-0.8-0.3-0.8-1.8
		c0-5,0-5.2,1-5.4h1.8v-1.1h-12.9L329.4,123.1z">
  </path>
  <path class="st0" d="M353.4,112.7c0-1.1-0.1-2.2-0.3-3.2c-2.6,0.3-5.1,1-7.5,1.9l0.4,1.2h0.5c0.4-0.1,0.8-0.2,1.2-0.3
		c1.5,0,1.5,1.1,1.5,6.5v10c0,3.5-0.5,3.5-2.3,3.8h-1.2v1.1h12.3v-1.1h-1.2c-2.7-0.2-3.2-0.2-3.2-3.8V115c0.2-1.2,1.3-2.1,2.5-2
		c1.5,0.2,2.8,0.6,4.2,1.1c1.1-0.8,1.9-1.8,2.6-2.9c-1.1-0.8-2.5-1.4-3.9-1.6C356.7,110,354.8,111,353.4,112.7z">
  </path>
  <path class="st0" d="M376.8,109.5c-6.8-0.2-12.4,5.1-12.6,11.9c0,0.3,0,0.7,0,1c-0.3,6.3,4.6,11.7,10.9,12.1c0.5,0,1,0,1.4,0
		c6.7,0.3,12.4-4.9,12.6-11.6c0-0.5,0-1,0-1.5c0.2-6.3-4.7-11.6-11-11.9C377.6,109.4,377.2,109.4,376.8,109.5z M377.4,132.6
		c-5.8,0-8.5-5.1-8.5-10.8c0-4.9,1.8-10.5,7.2-10.5c6,0,8.3,5.3,8.3,11.4C384.4,128,382,132.5,377.4,132.6L377.4,132.6L377.4,132.6z
		">
  </path>
  <path class="st0" d="M418.5,131.5c-0.3,0-0.6,0-0.8,0c-1.4,0-1.4-2.1-1.4-6.5v-15.6c-2.7,0.3-5.4,1-8,1.8l0.2,1.2l1.1-0.3h0.7
		c1.4,0,1.4,1.5,1.4,6.5v11.7c-1.6,1.1-3.4,1.7-5.3,1.6c-5.1,0-6.2-3-6.2-7.1v-15.5c-2.7,0.4-5.4,1-8,1.8l0.2,1.2l1.1-0.3h0.7
		c1.5,0,1.5,1.5,1.5,6.5v6.5c0,5.6,0.7,9.2,8.3,9.2c2.8,0,5.6-0.9,7.9-2.5c0.2,0.9,0.6,1.8,1.1,2.5c2.3-0.4,4.7-1,6.9-1.7l-0.3-1.1
		L418.5,131.5z">
  </path>
  <path class="st0" d="M437.1,109.5c-2.5,0-4.9,0.8-6.9,2.2c-0.1-0.8-0.3-1.5-0.6-2.2c-2.5,0.3-5,0.9-7.3,1.8l0.2,1.2l1.1-0.3h0.7
		c1.5,0,1.5,1.4,1.5,6.5v21.3c0,3.2-0.5,3.5-2.3,3.8h-1.2v1.4h11.4v-1.1h-1.2c-1.9-0.2-2.3-0.6-2.3-3.8v-6c1.4,0.4,2.8,0.6,4.2,0.6
		c7.3,0.4,13.5-5.2,13.9-12.4c0-0.4,0-0.9,0-1.3c0.5-5.9-4-11-9.8-11.4C438,109.4,437.5,109.4,437.1,109.5z M435.8,132.6
		c-2.1,0.1-4.1-0.5-5.7-1.8V113c1.3-0.7,2.8-1.1,4.3-1.1c4.9-0.1,9,3.9,9.1,8.8c0,0.4,0,0.8,0,1.1
		C443.5,128.3,441,132.5,435.8,132.6L435.8,132.6L435.8,132.6z">
  </path>
  <path class="st0" d="M88.2,7.7C89,3.7,89,3.2,94,3.2h2v16.5c0,4.2,0,4.4-1.9,4.6h-1.3V25h9.7v-0.8h-1.2c-2,0-2-0.3-2-4.6V3.2h1.8
		c4.9,0,5,0.5,5.8,4.5h0.8c0,0,0-1.1,0-1.5c0-1.3-0.1-2.7-0.3-4H87.8c-0.2,1.3-0.3,2.6-0.3,4c0,0.5,0,1.4,0,1.5H88.2z">
  </path>
  <path class="st0" d="M115.3,24.3h-0.8c-1.3,0-1.6-0.4-1.6-2.5v-9.5c1-1,2.4-1.7,3.9-1.8c2.9,0,4.1,2.1,4.1,4.9v6.5
		c0,2.1-0.3,2.4-1.6,2.5h-0.8v0.8h7.7v-0.7h-0.8c-1.3,0-1.6-0.4-1.6-2.5v-6.2c0-3.8-0.4-7-5.5-7c-2,0-4,0.7-5.5,2.1V0
		c-1.8,0.1-3.6,0.2-5.4,0.6v0.8h0.5h0.8c1.3,0,1.3,1.6,1.3,4.3v16.2c0,2.1-0.3,2.4-1.5,2.5h-0.8v0.8h7.6V24.3z">
  </path>
  <path class="st0" d="M135,25.6c2.2,0,4.3-0.7,6.1-2l-0.4-0.8c-1.2,0.7-2.5,1.1-3.9,1.1c-3.5,0-6.4-2.7-6.5-6.3
		c3.8-0.8,7.4-2.1,10.9-3.7c-0.3-3.1-3-5.4-6.1-5.2c-4.6,0.1-8.2,3.9-8.1,8.5c0,0.2,0,0.3,0,0.5c-0.2,4.2,3.1,7.7,7.3,7.9
		C134.5,25.6,134.7,25.6,135,25.6z M134.1,10c2.6,0,3.5,2.1,4,4.2c-2.5,0.8-5.1,1.5-7.8,2C130.2,13.7,131.1,10,134.1,10L134.1,10z">
  </path>
  <path class="st0" d="M460.9,102.8c-4.7,0-8.5,3.8-8.5,8.5c0,4.7,3.8,8.5,8.5,8.5c4.7,0,8.5-3.8,8.5-8.5v0c0-4.7-3.7-8.5-8.4-8.5
		C461,102.8,460.9,102.8,460.9,102.8z M460.9,118.5c-4,0.2-7.4-3-7.6-7c-0.2-4,3-7.4,7-7.6c4-0.2,7.4,3,7.6,7c0,0.1,0,0.2,0,0.3
		c0.1,3.9-2.9,7.1-6.8,7.2C461,118.5,461,118.5,460.9,118.5z">
  </path>
  <path class="st0" d="M464.9,109.1c0-1.9-1.1-2.8-3.5-2.8h-3.8v9.9h1.5V112h1.6l2.7,4.3h1.6l-2.8-4.4c1.4,0.1,2.6-1,2.6-2.4
		C464.9,109.3,464.9,109.2,464.9,109.1z M460.7,110.7h-1.6v-3.2h2.1c1,0,2.2,0.2,2.2,1.5C463.4,110.4,462.1,110.7,460.7,110.7
		L460.7,110.7z">
  </path>
 </g>
</svg>